<svg xmlns="http://www.w3.org/2000/svg" viewBox="0 0 1000 1000" preserveAspectRatio="xMidYMid slice"><g transform="translate(490.4 560.8)" opacity="0.62"><path d="M 0 -1.34 L 0.29 -0.29 L 1.34 0 L 0.29 0.29 L 0 1.34 L -0.29 0.29 L -1.34 0 L -0.29 -0.29 Z" fill="white"></path></g><g transform="translate(78.6 878.9)" opacity="0.71"><path d="M 0 -1.91 L 0.42 -0.42 L 1.91 0 L 0.42 0.42 L 0 1.91 L -0.42 0.42 L -1.91 0 L -0.42 -0.42 Z" fill="white"></path></g><g transform="translate(657.4 76.6)" opacity="0.62"><path d="M 0 -1.80 L 0.40 -0.40 L 1.80 0 L 0.40 0.40 L 0 1.80 L -0.40 0.40 L -1.80 0 L -0.40 -0.40 Z" fill="white"></path></g><g transform="translate(560.4 487.3)" opacity="0.53"><path d="M 0 -1.41 L 0.31 -0.31 L 1.41 0 L 0.31 0.31 L 0 1.41 L -0.31 0.31 L -1.41 0 L -0.31 -0.31 Z" fill="white"></path></g><g transform="translate(120.8 444.2)" opacity="0.59"><path d="M 0 -2.35 L 0.52 -0.52 L 2.35 0 L 0.52 0.52 L 0 2.35 L -0.52 0.52 L -2.35 0 L -0.52 -0.52 Z" fill="white"></path></g><g transform="translate(671.9 280.8)" opacity="0.99"><path d="M 0 -1.40 L 0.31 -0.31 L 1.40 0 L 0.31 0.31 L 0 1.40 L -0.31 0.31 L -1.40 0 L -0.31 -0.31 Z" fill="white"></path></g><g transform="translate(547.1 330.4)" opacity="0.89"><path d="M 0 -1.38 L 0.30 -0.30 L 1.38 0 L 0.30 0.30 L 0 1.38 L -0.30 0.30 L -1.38 0 L -0.30 -0.30 Z" fill="white"></path></g><g transform="translate(79.6 926.2)" opacity="0.94"><path d="M 0 -1.49 L 0.33 -0.33 L 1.49 0 L 0.33 0.33 L 0 1.49 L -0.33 0.33 L -1.49 0 L -0.33 -0.33 Z" fill="white"></path></g><g transform="translate(603.0 401.7)" opacity="0.83"><path d="M 0 -2.11 L 0.46 -0.46 L 2.11 0 L 0.46 0.46 L 0 2.11 L -0.46 0.46 L -2.11 0 L -0.46 -0.46 Z" fill="white"></path></g><g transform="translate(450.4 90.2)" opacity="0.71"><path d="M 0 -1.26 L 0.28 -0.28 L 1.26 0 L 0.28 0.28 L 0 1.26 L -0.28 0.28 L -1.26 0 L -0.28 -0.28 Z" fill="white"></path></g><g transform="translate(955.2 324.9)" opacity="0.75"><path d="M 0 -1.73 L 0.38 -0.38 L 1.73 0 L 0.38 0.38 L 0 1.73 L -0.38 0.38 L -1.73 0 L -0.38 -0.38 Z" fill="white"></path></g><g transform="translate(450.7 439.3)" opacity="0.62"><path d="M 0 -1.52 L 0.33 -0.33 L 1.52 0 L 0.33 0.33 L 0 1.52 L -0.33 0.33 L -1.52 0 L -0.33 -0.33 Z" fill="white"></path></g><g transform="translate(270.4 766.7)" opacity="0.98"><path d="M 0 -2.23 L 0.49 -0.49 L 2.23 0 L 0.49 0.49 L 0 2.23 L -0.49 0.49 L -2.23 0 L -0.49 -0.49 Z" fill="white"></path></g><g transform="translate(747.4 640.3)" opacity="0.51"><path d="M 0 -1.87 L 0.41 -0.41 L 1.87 0 L 0.41 0.41 L 0 1.87 L -0.41 0.41 L -1.87 0 L -0.41 -0.41 Z" fill="white"></path></g><g transform="translate(215.2 393.6)" opacity="0.87"><path d="M 0 -2.02 L 0.45 -0.45 L 2.02 0 L 0.45 0.45 L 0 2.02 L -0.45 0.45 L -2.02 0 L -0.45 -0.45 Z" fill="white"></path></g><g transform="translate(7.0 359.8)" opacity="0.72"><path d="M 0 -1.90 L 0.42 -0.42 L 1.90 0 L 0.42 0.42 L 0 1.90 L -0.42 0.42 L -1.90 0 L -0.42 -0.42 Z" fill="white"></path></g><g transform="translate(456.3 872.3)" opacity="0.73"><path d="M 0 -1.90 L 0.42 -0.42 L 1.90 0 L 0.42 0.42 L 0 1.90 L -0.42 0.42 L -1.90 0 L -0.42 -0.42 Z" fill="white"></path></g><g transform="translate(896.3 264.5)" opacity="0.58"><path d="M 0 -1.23 L 0.27 -0.27 L 1.23 0 L 0.27 0.27 L 0 1.23 L -0.27 0.27 L -1.23 0 L -0.27 -0.27 Z" fill="white"></path></g><g transform="translate(660.3 869.6)" opacity="0.92"><path d="M 0 -1.48 L 0.32 -0.32 L 1.48 0 L 0.32 0.32 L 0 1.48 L -0.32 0.32 L -1.48 0 L -0.32 -0.32 Z" fill="white"></path></g><g transform="translate(81.8 21.0)" opacity="0.92"><path d="M 0 -1.84 L 0.41 -0.41 L 1.84 0 L 0.41 0.41 L 0 1.84 L -0.41 0.41 L -1.84 0 L -0.41 -0.41 Z" fill="white"></path></g><g transform="translate(494.0 52.0)" opacity="0.74"><path d="M 0 -1.54 L 0.34 -0.34 L 1.54 0 L 0.34 0.34 L 0 1.54 L -0.34 0.34 L -1.54 0 L -0.34 -0.34 Z" fill="white"></path></g><g transform="translate(230.3 296.1)" opacity="0.57"><path d="M 0 -2.15 L 0.47 -0.47 L 2.15 0 L 0.47 0.47 L 0 2.15 L -0.47 0.47 L -2.15 0 L -0.47 -0.47 Z" fill="white"></path></g><g transform="translate(624.0 86.4)" opacity="0.55"><path d="M 0 -1.68 L 0.37 -0.37 L 1.68 0 L 0.37 0.37 L 0 1.68 L -0.37 0.37 L -1.68 0 L -0.37 -0.37 Z" fill="white"></path></g><g transform="translate(8.4 756.3)" opacity="0.87"><path d="M 0 -1.74 L 0.38 -0.38 L 1.74 0 L 0.38 0.38 L 0 1.74 L -0.38 0.38 L -1.74 0 L -0.38 -0.38 Z" fill="white"></path></g><g transform="translate(717.0 639.2)" opacity="0.68"><path d="M 0 -1.52 L 0.33 -0.33 L 1.52 0 L 0.33 0.33 L 0 1.52 L -0.33 0.33 L -1.52 0 L -0.33 -0.33 Z" fill="white"></path></g><g transform="translate(82.9 68.4)" opacity="0.65"><path d="M 0 -1.42 L 0.31 -0.31 L 1.42 0 L 0.31 0.31 L 0 1.42 L -0.31 0.31 L -1.42 0 L -0.31 -0.31 Z" fill="white"></path></g><g transform="translate(439.5 377.2)" opacity="0.95"><path d="M 0 -1.85 L 0.41 -0.41 L 1.85 0 L 0.41 0.41 L 0 1.85 L -0.41 0.41 L -1.85 0 L -0.41 -0.41 Z" fill="white"></path></g><g transform="translate(120.3 899.0)" opacity="0.75"><path d="M 0 -1.99 L 0.44 -0.44 L 1.99 0 L 0.44 0.44 L 0 1.99 L -0.44 0.44 L -1.99 0 L -0.44 -0.44 Z" fill="white"></path></g><g transform="translate(458.4 967.1)" opacity="0.71"><path d="M 0 -2.26 L 0.50 -0.50 L 2.26 0 L 0.50 0.50 L 0 2.26 L -0.50 0.50 L -2.26 0 L -0.50 -0.50 Z" fill="white"></path></g><g transform="translate(787.3 914.8)" opacity="0.99"><path d="M 0 -1.85 L 0.41 -0.41 L 1.85 0 L 0.41 0.41 L 0 1.85 L -0.41 0.41 L -1.85 0 L -0.41 -0.41 Z" fill="white"></path></g><g transform="translate(440.3 75.5)" opacity="0.78"><path d="M 0 -2.37 L 0.52 -0.52 L 2.37 0 L 0.52 0.52 L 0 2.37 L -0.52 0.52 L -2.37 0 L -0.52 -0.52 Z" fill="white"></path></g><g transform="translate(750.6 782.4)" opacity="0.72"><path d="M 0 -1.80 L 0.40 -0.40 L 1.80 0 L 0.40 0.40 L 0 1.80 L -0.40 0.40 L -1.80 0 L -0.40 -0.40 Z" fill="white"></path></g><g transform="translate(51.7 369.0)" opacity="1.00"><path d="M 0 -1.76 L 0.39 -0.39 L 1.76 0 L 0.39 0.39 L 0 1.76 L -0.39 0.39 L -1.76 0 L -0.39 -0.39 Z" fill="white"></path></g><g transform="translate(676.9 168.6)" opacity="0.76"><path d="M 0 -1.44 L 0.32 -0.32 L 1.44 0 L 0.32 0.32 L 0 1.44 L -0.32 0.32 L -1.44 0 L -0.32 -0.32 Z" fill="white"></path></g><g transform="translate(959.5 514.4)" opacity="0.69"><path d="M 0 -1.24 L 0.27 -0.27 L 1.24 0 L 0.27 0.27 L 0 1.24 L -0.27 0.27 L -1.24 0 L -0.27 -0.27 Z" fill="white"></path></g><g transform="translate(232.8 739.9)" opacity="0.95"><path d="M 0 -1.57 L 0.34 -0.34 L 1.57 0 L 0.34 0.34 L 0 1.57 L -0.34 0.34 L -1.57 0 L -0.34 -0.34 Z" fill="white"></path></g><g transform="translate(830.2 178.4)" opacity="0.71"><path d="M 0 -1.61 L 0.35 -0.35 L 1.61 0 L 0.35 0.35 L 0 1.61 L -0.35 0.35 L -1.61 0 L -0.35 -0.35 Z" fill="white"></path></g><g transform="translate(85.0 163.1)" opacity="0.63"><path d="M 0 -1.78 L 0.39 -0.39 L 1.78 0 L 0.39 0.39 L 0 1.78 L -0.39 0.39 L -1.78 0 L -0.39 -0.39 Z" fill="white"></path></g><g transform="translate(330.6 27.5)" opacity="0.87"><path d="M 0 -1.27 L 0.28 -0.28 L 1.27 0 L 0.28 0.28 L 0 1.27 L -0.28 0.28 L -1.27 0 L -0.28 -0.28 Z" fill="white"></path></g><g transform="translate(900.2 104.8)" opacity="0.61"><path d="M 0 -1.69 L 0.37 -0.37 L 1.69 0 L 0.37 0.37 L 0 1.69 L -0.37 0.37 L -1.69 0 L -0.37 -0.37 Z" fill="white"></path></g><g transform="translate(127.2 728.5)" opacity="0.51"><path d="M 0 -2.22 L 0.49 -0.49 L 2.22 0 L 0.49 0.49 L 0 2.22 L -0.49 0.49 L -2.22 0 L -0.49 -0.49 Z" fill="white"></path></g><g transform="translate(345.0 231.8)" opacity="0.75"><path d="M 0 -2.08 L 0.46 -0.46 L 2.08 0 L 0.46 0.46 L 0 2.08 L -0.46 0.46 L -2.08 0 L -0.46 -0.46 Z" fill="white"></path></g><g transform="translate(886.9 948.0)" opacity="0.97"><path d="M 0 -1.66 L 0.36 -0.36 L 1.66 0 L 0.36 0.36 L 0 1.66 L -0.36 0.36 L -1.66 0 L -0.36 -0.36 Z" fill="white"></path></g><g transform="translate(86.1 210.5)" opacity="0.86"><path d="M 0 -1.36 L 0.30 -0.30 L 1.36 0 L 0.30 0.30 L 0 1.36 L -0.30 0.30 L -1.36 0 L -0.30 -0.30 Z" fill="white"></path></g><g transform="translate(276.1 352.7)" opacity="0.58"><path d="M 0 -1.59 L 0.35 -0.35 L 1.59 0 L 0.35 0.35 L 0 1.59 L -0.35 0.35 L -1.59 0 L -0.35 -0.35 Z" fill="white"></path></g><g transform="translate(790.2 707.8)" opacity="0.79"><path d="M 0 -1.53 L 0.34 -0.34 L 1.53 0 L 0.34 0.34 L 0 1.53 L -0.34 0.34 L -1.53 0 L -0.34 -0.34 Z" fill="white"></path></g><g transform="translate(961.7 609.2)" opacity="0.67"><path d="M 0 -1.60 L 0.35 -0.35 L 1.60 0 L 0.35 0.35 L 0 1.60 L -0.35 0.35 L -1.60 0 L -0.35 -0.35 Z" fill="white"></path></g><g transform="translate(123.9 390.2)" opacity="0.87"><path d="M 0 -2.19 L 0.48 -0.48 L 2.19 0 L 0.48 0.48 L 0 2.19 L -0.48 0.48 L -2.19 0 L -0.48 -0.48 Z" fill="white"></path></g><g transform="translate(610.2 384.2)" opacity="0.57"><path d="M 0 -1.30 L 0.29 -0.29 L 1.30 0 L 0.29 0.29 L 0 1.30 L -0.29 0.29 L -1.30 0 L -0.29 -0.29 Z" fill="white"></path></g><g transform="translate(753.9 924.5)" opacity="0.93"><path d="M 0 -1.74 L 0.38 -0.38 L 1.74 0 L 0.38 0.38 L 0 1.74 L -0.38 0.38 L -1.74 0 L -0.38 -0.38 Z" fill="white"></path></g><g transform="translate(888.3 344.5)" opacity="0.62"><path d="M 0 -1.50 L 0.33 -0.33 L 1.50 0 L 0.33 0.33 L 0 1.50 L -0.33 0.33 L -1.50 0 L -0.33 -0.33 Z" fill="white"></path></g><g transform="translate(346.8 977.4)" opacity="0.81"><path d="M 0 -2.18 L 0.48 -0.48 L 2.18 0 L 0.48 0.48 L 0 2.18 L -0.48 0.48 L -2.18 0 L -0.48 -0.48 Z" fill="white"></path></g><g transform="translate(462.7 156.6)" opacity="0.65"><path d="M 0 -1.78 L 0.39 -0.39 L 1.78 0 L 0.39 0.39 L 0 1.78 L -0.39 0.39 L -1.78 0 L -0.39 -0.39 Z" fill="white"></path></g><g transform="translate(569.4 215.4)" opacity="0.83"><path d="M 0 -1.90 L 0.42 -0.42 L 1.90 0 L 0.42 0.42 L 0 1.90 L -0.42 0.42 L -1.90 0 L -0.42 -0.42 Z" fill="white"></path></g><g transform="translate(0.1 487.2)" opacity="0.50"><path d="M 0 -1.75 L 0.39 -0.39 L 1.75 0 L 0.39 0.39 L 0 1.75 L -0.39 0.39 L -1.75 0 L -0.39 -0.39 Z" fill="white"></path></g><g transform="translate(88.3 305.3)" opacity="0.84"><path d="M 0 -1.72 L 0.38 -0.38 L 1.72 0 L 0.38 0.38 L 0 1.72 L -0.38 0.38 L -1.72 0 L -0.38 -0.38 Z" fill="white"></path></g><g transform="translate(167.2 3.0)" opacity="1.00"><path d="M 0 -2.21 L 0.49 -0.49 L 2.21 0 L 0.49 0.49 L 0 2.21 L -0.49 0.49 L -2.21 0 L -0.49 -0.49 Z" fill="white"></path></g><g transform="translate(570.1 913.6)" opacity="0.65"><path d="M 0 -1.22 L 0.27 -0.27 L 1.22 0 L 0.27 0.27 L 0 1.22 L -0.27 0.27 L -1.22 0 L -0.27 -0.27 Z" fill="white"></path></g><g transform="translate(630.5 370.6)" opacity="0.97"><path d="M 0 -1.56 L 0.34 -0.34 L 1.56 0 L 0.34 0.34 L 0 1.56 L -0.34 0.34 L -1.56 0 L -0.34 -0.34 Z" fill="white"></path></g><g transform="translate(681.6 707.2)" opacity="0.62"><path d="M 0 -1.22 L 0.27 -0.27 L 1.22 0 L 0.27 0.27 L 0 1.22 L -0.27 0.27 L -1.22 0 L -0.27 -0.27 Z" fill="white"></path></g><g transform="translate(56.8 256.8)" opacity="0.77"><path d="M 0 -1.80 L 0.40 -0.40 L 1.80 0 L 0.40 0.40 L 0 1.80 L -0.40 0.40 L -1.80 0 L -0.40 -0.40 Z" fill="white"></path></g><g transform="translate(89.4 352.6)" opacity="0.57"><path d="M 0 -1.30 L 0.29 -0.29 L 1.30 0 L 0.29 0.29 L 0 1.30 L -0.29 0.29 L -1.30 0 L -0.29 -0.29 Z" fill="white"></path></g><g transform="translate(112.7 328.1)" opacity="0.71"><path d="M 0 -1.32 L 0.29 -0.29 L 1.32 0 L 0.29 0.29 L 0 1.32 L -0.29 0.29 L -1.32 0 L -0.29 -0.29 Z" fill="white"></path></g><g transform="translate(460.1 516.6)" opacity="0.84"><path d="M 0 -2.27 L 0.50 -0.50 L 2.27 0 L 0.50 0.50 L 0 2.27 L -0.50 0.50 L -2.27 0 L -0.50 -0.50 Z" fill="white"></path></g><g transform="translate(464.9 251.3)" opacity="0.63"><path d="M 0 -2.14 L 0.47 -0.47 L 2.14 0 L 0.47 0.47 L 0 2.14 L -0.47 0.47 L -2.14 0 L -0.47 -0.47 Z" fill="white"></path></g><g transform="translate(460.5 865.7)" opacity="0.75"><path d="M 0 -1.33 L 0.29 -0.29 L 1.33 0 L 0.29 0.29 L 0 1.33 L -0.29 0.29 L -1.33 0 L -0.29 -0.29 Z" fill="white"></path></g><g transform="translate(780.1 693.0)" opacity="0.86"><path d="M 0 -1.44 L 0.32 -0.32 L 1.44 0 L 0.32 0.32 L 0 1.44 L -0.32 0.32 L -1.44 0 L -0.32 -0.32 Z" fill="white"></path></g><g transform="translate(757.1 66.7)" opacity="0.64"><path d="M 0 -1.68 L 0.37 -0.37 L 1.68 0 L 0.37 0.37 L 0 1.68 L -0.37 0.37 L -1.68 0 L -0.37 -0.37 Z" fill="white"></path></g><g transform="translate(724.9 319.9)" opacity="0.75"><path d="M 0 -1.23 L 0.27 -0.27 L 1.23 0 L 0.27 0.27 L 0 1.23 L -0.27 0.27 L -1.23 0 L -0.27 -0.27 Z" fill="white"></path></g><g transform="translate(16.7 786.2)" opacity="0.85"><path d="M 0 -1.71 L 0.38 -0.38 L 1.71 0 L 0.38 0.38 L 0 1.71 L -0.38 0.38 L -1.71 0 L -0.38 -0.38 Z" fill="white"></path></g><g transform="translate(966.0 798.7)" opacity="0.61"><path d="M 0 -2.32 L 0.51 -0.51 L 2.32 0 L 0.51 0.51 L 0 2.32 L -0.51 0.51 L -2.32 0 L -0.51 -0.51 Z" fill="white"></path></g><g transform="translate(906.0 690.9)" opacity="0.71"><path d="M 0 -2.24 L 0.49 -0.49 L 2.24 0 L 0.49 0.49 L 0 2.24 L -0.49 0.49 L -2.24 0 L -0.49 -0.49 Z" fill="white"></path></g><g transform="translate(170.0 796.0)" opacity="0.80"><path d="M 0 -1.89 L 0.42 -0.42 L 1.89 0 L 0.42 0.42 L 0 1.89 L -0.42 0.42 L -1.89 0 L -0.42 -0.42 Z" fill="white"></path></g><g transform="translate(91.5 447.4)" opacity="0.55"><path d="M 0 -1.66 L 0.36 -0.36 L 1.66 0 L 0.36 0.36 L 0 1.66 L -0.36 0.36 L -1.66 0 L -0.36 -0.36 Z" fill="white"></path></g><g transform="translate(3.7 978.4)" opacity="0.62"><path d="M 0 -1.95 L 0.43 -0.43 L 1.95 0 L 0.43 0.43 L 0 1.95 L -0.43 0.43 L -1.95 0 L -0.43 -0.43 Z" fill="white"></path></g><g transform="translate(240.0 722.4)" opacity="0.70"><path d="M 0 -1.96 L 0.43 -0.43 L 1.96 0 L 0.43 0.43 L 0 1.96 L -0.43 0.43 L -1.96 0 L -0.43 -0.43 Z" fill="white"></path></g><g transform="translate(133.7 12.7)" opacity="0.93"><path d="M 0 -2.10 L 0.46 -0.46 L 2.10 0 L 0.46 0.46 L 0 2.10 L -0.46 0.46 L -2.10 0 L -0.46 -0.46 Z" fill="white"></path></g><g transform="translate(18.2 182.7)" opacity="1.00"><path d="M 0 -1.55 L 0.34 -0.34 L 1.55 0 L 0.34 0.34 L 0 1.55 L -0.34 0.34 L -1.55 0 L -0.34 -0.34 Z" fill="white"></path></g><g transform="translate(226.7 565.6)" opacity="0.56"><path d="M 0 -1.93 L 0.43 -0.43 L 1.93 0 L 0.43 0.43 L 0 1.93 L -0.43 0.43 L -1.93 0 L -0.43 -0.43 Z" fill="white"></path></g><g transform="translate(92.6 494.8)" opacity="0.78"><path d="M 0 -1.24 L 0.27 -0.27 L 1.24 0 L 0.27 0.27 L 0 1.24 L -0.27 0.27 L -1.24 0 L -0.27 -0.27 Z" fill="white"></path></g><g transform="translate(949.3 303.6)" opacity="0.83"><path d="M 0 -2.26 L 0.50 -0.50 L 2.26 0 L 0.50 0.50 L 0 2.26 L -0.50 0.50 L -2.26 0 L -0.50 -0.50 Z" fill="white"></path></g><g transform="translate(130.0 325.4)" opacity="0.88"><path d="M 0 -1.81 L 0.40 -0.40 L 1.81 0 L 0.40 0.40 L 0 1.81 L -0.40 0.40 L -1.81 0 L -0.40 -0.40 Z" fill="white"></path></g><g transform="translate(968.1 893.5)" opacity="0.59"><path d="M 0 -1.47 L 0.32 -0.32 L 1.47 0 L 0.32 0.32 L 0 1.47 L -0.32 0.32 L -1.47 0 L -0.32 -0.32 Z" fill="white"></path></g><g transform="translate(797.0 341.2)" opacity="0.62"><path d="M 0 -1.67 L 0.37 -0.37 L 1.67 0 L 0.37 0.37 L 0 1.67 L -0.37 0.37 L -1.67 0 L -0.37 -0.37 Z" fill="white"></path></g><g transform="translate(950.0 1.8)" opacity="0.66"><path d="M 0 -1.58 L 0.35 -0.35 L 1.58 0 L 0.35 0.35 L 0 1.58 L -0.35 0.35 L -1.58 0 L -0.35 -0.35 Z" fill="white"></path></g><g transform="translate(760.3 208.8)" opacity="0.85"><path d="M 0 -1.61 L 0.36 -0.36 L 1.61 0 L 0.36 0.36 L 0 1.61 L -0.36 0.36 L -1.61 0 L -0.36 -0.36 Z" fill="white"></path></g><g transform="translate(561.5 295.4)" opacity="0.88"><path d="M 0 -2.17 L 0.48 -0.48 L 2.17 0 L 0.48 0.48 L 0 2.17 L -0.48 0.48 L -2.17 0 L -0.48 -0.48 Z" fill="white"></path></g><g transform="translate(686.6 595.0)" opacity="0.89"><path d="M 0 -1.25 L 0.28 -0.28 L 1.25 0 L 0.28 0.28 L 0 1.25 L -0.28 0.28 L -1.25 0 L -0.28 -0.28 Z" fill="white"></path></g><g transform="translate(469.2 440.8)" opacity="0.57"><path d="M 0 -1.65 L 0.36 -0.36 L 1.65 0 L 0.36 0.36 L 0 1.65 L -0.36 0.36 L -1.65 0 L -0.36 -0.36 Z" fill="white"></path></g><g transform="translate(242.5 166.3)" opacity="0.58"><path d="M 0 -1.38 L 0.30 -0.30 L 1.38 0 L 0.30 0.30 L 0 1.38 L -0.30 0.30 L -1.38 0 L -0.30 -0.30 Z" fill="white"></path></g><g transform="translate(340.0 104.8)" opacity="0.59"><path d="M 0 -2.02 L 0.45 -0.45 L 2.02 0 L 0.45 0.45 L 0 2.02 L -0.45 0.45 L -2.02 0 L -0.45 -0.45 Z" fill="white"></path></g><g transform="translate(94.8 589.5)" opacity="0.76"><path d="M 0 -1.59 L 0.35 -0.35 L 1.59 0 L 0.35 0.35 L 0 1.59 L -0.35 0.35 L -1.59 0 L -0.35 -0.35 Z" fill="white"></path></g><g transform="translate(840.3 953.9)" opacity="0.75"><path d="M 0 -1.68 L 0.37 -0.37 L 1.68 0 L 0.37 0.37 L 0 1.68 L -0.37 0.37 L -1.68 0 L -0.37 -0.37 Z" fill="white"></path></g><g transform="translate(909.9 531.2)" opacity="0.74"><path d="M 0 -1.50 L 0.33 -0.33 L 1.50 0 L 0.33 0.33 L 0 1.50 L -0.33 0.33 L -1.50 0 L -0.33 -0.33 Z" fill="white"></path></g><g transform="translate(637.0 654.9)" opacity="0.89"><path d="M 0 -1.43 L 0.32 -0.32 L 1.43 0 L 0.32 0.32 L 0 1.43 L -0.32 0.32 L -1.43 0 L -0.32 -0.32 Z" fill="white"></path></g><g transform="translate(354.7 658.1)" opacity="0.88"><path d="M 0 -1.89 L 0.42 -0.42 L 1.89 0 L 0.42 0.42 L 0 1.89 L -0.42 0.42 L -1.89 0 L -0.42 -0.42 Z" fill="white"></path></g><g transform="translate(396.6 874.4)" opacity="0.85"><path d="M 0 -2.07 L 0.46 -0.46 L 2.07 0 L 0.46 0.46 L 0 2.07 L -0.46 0.46 L -2.07 0 L -0.46 -0.46 Z" fill="white"></path></g><g transform="translate(95.8 636.9)" opacity="0.99"><path d="M 0 -2.37 L 0.52 -0.52 L 2.37 0 L 0.52 0.52 L 0 2.37 L -0.52 0.52 L -2.37 0 L -0.52 -0.52 Z" fill="white"></path></g><g transform="translate(785.8 279.1)" opacity="0.96"><path d="M 0 -2.00 L 0.44 -0.44 L 2.00 0 L 0.44 0.44 L 0 2.00 L -0.44 0.44 L -2.00 0 L -0.44 -0.44 Z" fill="white"></path></g><g transform="translate(799.9 134.2)" opacity="0.92"><path d="M 0 -1.34 L 0.30 -0.30 L 1.34 0 L 0.30 0.30 L 0 1.34 L -0.30 0.30 L -1.34 0 L -0.30 -0.30 Z" fill="white"></path></g><g transform="translate(471.4 535.6)" opacity="0.55"><path d="M 0 -2.01 L 0.44 -0.44 L 2.01 0 L 0.44 0.44 L 0 2.01 L -0.44 0.44 L -2.01 0 L -0.44 -0.44 Z" fill="white"></path></g><g transform="translate(133.6 816.6)" opacity="0.50"><path d="M 0 -2.00 L 0.44 -0.44 L 2.00 0 L 0.44 0.44 L 0 2.00 L -0.44 0.44 L -2.00 0 L -0.44 -0.44 Z" fill="white"></path></g><g transform="translate(119.9 310.6)" opacity="0.95"><path d="M 0 -1.72 L 0.38 -0.38 L 1.72 0 L 0.38 0.38 L 0 1.72 L -0.38 0.38 L -1.72 0 L -0.38 -0.38 Z" fill="white"></path></g><g transform="translate(763.6 350.9)" opacity="0.56"><path d="M 0 -1.55 L 0.34 -0.34 L 1.55 0 L 0.34 0.34 L 0 1.55 L -0.34 0.34 L -1.55 0 L -0.34 -0.34 Z" fill="white"></path></g><g transform="translate(398.0 270.9)" opacity="0.50"><path d="M 0 -1.91 L 0.42 -0.42 L 1.91 0 L 0.42 0.42 L 0 1.91 L -0.42 0.42 L -1.91 0 L -0.42 -0.42 Z" fill="white"></path></g><g transform="translate(356.5 403.8)" opacity="0.94"><path d="M 0 -1.99 L 0.44 -0.44 L 1.99 0 L 0.44 0.44 L 0 1.99 L -0.44 0.44 L -1.99 0 L -0.44 -0.44 Z" fill="white"></path></g><g transform="translate(972.5 83.0)" opacity="0.53"><path d="M 0 -2.19 L 0.48 -0.48 L 2.19 0 L 0.48 0.48 L 0 2.19 L -0.48 0.48 L -2.19 0 L -0.48 -0.48 Z" fill="white"></path></g><g transform="translate(579.1 641.8)" opacity="0.96"><path d="M 0 -1.72 L 0.38 -0.38 L 1.72 0 L 0.38 0.38 L 0 1.72 L -0.38 0.38 L -1.72 0 L -0.38 -0.38 Z" fill="white"></path></g><g transform="translate(509.9 413.6)" opacity="0.88"><path d="M 0 -2.16 L 0.48 -0.48 L 2.16 0 L 0.48 0.48 L 0 2.16 L -0.48 0.48 L -2.16 0 L -0.48 -0.48 Z" fill="white"></path></g><g transform="translate(98.0 731.6)" opacity="0.97"><path d="M 0 -1.53 L 0.34 -0.34 L 1.53 0 L 0.34 0.34 L 0 1.53 L -0.34 0.34 L -1.53 0 L -0.34 -0.34 Z" fill="white"></path></g><g transform="translate(676.9 929.4)" opacity="0.88"><path d="M 0 -1.42 L 0.31 -0.31 L 1.42 0 L 0.31 0.31 L 0 1.42 L -0.31 0.31 L -1.42 0 L -0.31 -0.31 Z" fill="white"></path></g><g transform="translate(579.8 340.0)" opacity="0.78"><path d="M 0 -2.23 L 0.49 -0.49 L 2.23 0 L 0.49 0.49 L 0 2.23 L -0.49 0.49 L -2.23 0 L -0.49 -0.49 Z" fill="white"></path></g><g transform="translate(140.2 297.0)" opacity="0.85"><path d="M 0 -1.97 L 0.43 -0.43 L 1.97 0 L 0.43 0.43 L 0 1.97 L -0.43 0.43 L -1.97 0 L -0.43 -0.43 Z" fill="white"></path></g><g transform="translate(691.3 133.6)" opacity="0.75"><path d="M 0 -2.23 L 0.49 -0.49 L 2.23 0 L 0.49 0.49 L 0 2.23 L -0.49 0.49 L -2.23 0 L -0.49 -0.49 Z" fill="white"></path></g><g transform="translate(566.5 183.2)" opacity="0.65"><path d="M 0 -2.21 L 0.49 -0.49 L 2.21 0 L 0.49 0.49 L 0 2.21 L -0.49 0.49 L -2.21 0 L -0.49 -0.49 Z" fill="white"></path></g><g transform="translate(99.1 779.0)" opacity="0.70"><path d="M 0 -2.31 L 0.51 -0.51 L 2.31 0 L 0.51 0.51 L 0 2.31 L -0.51 0.51 L -2.31 0 L -0.51 -0.51 Z" fill="white"></path></g><g transform="translate(622.4 254.5)" opacity="0.59"><path d="M 0 -1.73 L 0.38 -0.38 L 1.73 0 L 0.38 0.38 L 0 1.73 L -0.38 0.38 L -1.73 0 L -0.38 -0.38 Z" fill="white"></path></g><g transform="translate(469.8 943.0)" opacity="0.97"><path d="M 0 -2.08 L 0.46 -0.46 L 2.08 0 L 0.46 0.46 L 0 2.08 L -0.46 0.46 L -2.08 0 L -0.46 -0.46 Z" fill="white"></path></g><g transform="translate(974.6 177.7)" opacity="0.51"><path d="M 0 -1.35 L 0.30 -0.30 L 1.35 0 L 0.30 0.30 L 0 1.35 L -0.30 0.30 L -1.35 0 L -0.30 -0.30 Z" fill="white"></path></g><g transform="translate(470.2 292.1)" opacity="0.88"><path d="M 0 -2.34 L 0.51 -0.51 L 2.34 0 L 0.51 0.51 L 0 2.34 L -0.51 0.51 L -2.34 0 L -0.51 -0.51 Z" fill="white"></path></g><g transform="translate(289.8 619.4)" opacity="0.74"><path d="M 0 -1.85 L 0.41 -0.41 L 1.85 0 L 0.41 0.41 L 0 1.85 L -0.41 0.41 L -1.85 0 L -0.41 -0.41 Z" fill="white"></path></g><g transform="translate(766.8 493.1)" opacity="0.77"><path d="M 0 -1.49 L 0.33 -0.33 L 1.49 0 L 0.33 0.33 L 0 1.49 L -0.33 0.33 L -1.49 0 L -0.33 -0.33 Z" fill="white"></path></g><g transform="translate(234.6 246.3)" opacity="0.63"><path d="M 0 -1.65 L 0.36 -0.36 L 1.65 0 L 0.36 0.36 L 0 1.65 L -0.36 0.36 L -1.65 0 L -0.36 -0.36 Z" fill="white"></path></g><g transform="translate(26.4 212.6)" opacity="0.98"><path d="M 0 -1.53 L 0.34 -0.34 L 1.53 0 L 0.34 0.34 L 0 1.53 L -0.34 0.34 L -1.53 0 L -0.34 -0.34 Z" fill="white"></path></g><g transform="translate(475.7 725.1)" opacity="0.99"><path d="M 0 -1.53 L 0.34 -0.34 L 1.53 0 L 0.34 0.34 L 0 1.53 L -0.34 0.34 L -1.53 0 L -0.34 -0.34 Z" fill="white"></path></g><g transform="translate(915.7 117.2)" opacity="0.84"><path d="M 0 -2.05 L 0.45 -0.45 L 2.05 0 L 0.45 0.45 L 0 2.05 L -0.45 0.45 L -2.05 0 L -0.45 -0.45 Z" fill="white"></path></g><g transform="translate(679.8 722.4)" opacity="0.67"><path d="M 0 -2.30 L 0.51 -0.51 L 2.30 0 L 0.51 0.51 L 0 2.30 L -0.51 0.51 L -2.30 0 L -0.51 -0.51 Z" fill="white"></path></g><g transform="translate(101.2 873.8)" opacity="0.68"><path d="M 0 -1.47 L 0.32 -0.32 L 1.47 0 L 0.32 0.32 L 0 1.47 L -0.32 0.32 L -1.47 0 L -0.32 -0.32 Z" fill="white"></path></g><g transform="translate(513.5 904.8)" opacity="0.50"><path d="M 0 -2.36 L 0.52 -0.52 L 2.36 0 L 0.52 0.52 L 0 2.36 L -0.52 0.52 L -2.36 0 L -0.52 -0.52 Z" fill="white"></path></g><g transform="translate(249.8 148.8)" opacity="0.83"><path d="M 0 -1.77 L 0.39 -0.39 L 1.77 0 L 0.39 0.39 L 0 1.77 L -0.39 0.39 L -1.77 0 L -0.39 -0.39 Z" fill="white"></path></g><g transform="translate(643.4 939.1)" opacity="0.81"><path d="M 0 -1.31 L 0.29 -0.29 L 1.31 0 L 0.29 0.29 L 0 1.31 L -0.29 0.29 L -1.31 0 L -0.29 -0.29 Z" fill="white"></path></g><g transform="translate(27.9 609.1)" opacity="0.63"><path d="M 0 -1.37 L 0.30 -0.30 L 1.37 0 L 0.30 0.30 L 0 1.37 L -0.30 0.30 L -1.37 0 L -0.30 -0.30 Z" fill="white"></path></g><g transform="translate(736.4 492.0)" opacity="0.94"><path d="M 0 -2.34 L 0.52 -0.52 L 2.34 0 L 0.52 0.52 L 0 2.34 L -0.52 0.52 L -2.34 0 L -0.52 -0.52 Z" fill="white"></path></g><g transform="translate(102.3 921.2)" opacity="0.91"><path d="M 0 -2.25 L 0.49 -0.49 L 2.25 0 L 0.49 0.49 L 0 2.25 L -0.49 0.49 L -2.25 0 L -0.49 -0.49 Z" fill="white"></path></g><g transform="translate(459.0 230.0)" opacity="0.71"><path d="M 0 -1.47 L 0.32 -0.32 L 1.47 0 L 0.32 0.32 L 0 1.47 L -0.32 0.32 L -1.47 0 L -0.32 -0.32 Z" fill="white"></path></g><g transform="translate(139.7 751.8)" opacity="0.51"><path d="M 0 -1.62 L 0.36 -0.36 L 1.62 0 L 0.36 0.36 L 0 1.62 L -0.36 0.36 L -1.62 0 L -0.36 -0.36 Z" fill="white"></path></g><g transform="translate(477.9 819.8)" opacity="0.97"><path d="M 0 -1.89 L 0.42 -0.42 L 1.89 0 L 0.42 0.42 L 0 1.89 L -0.42 0.42 L -1.89 0 L -0.42 -0.42 Z" fill="white"></path></g><g transform="translate(806.7 767.6)" opacity="0.75"><path d="M 0 -1.48 L 0.33 -0.33 L 1.48 0 L 0.33 0.33 L 0 1.48 L -0.33 0.33 L -1.48 0 L -0.33 -0.33 Z" fill="white"></path></g><g transform="translate(459.7 928.2)" opacity="0.54"><path d="M 0 -1.99 L 0.44 -0.44 L 1.99 0 L 0.44 0.44 L 0 1.99 L -0.44 0.44 L -1.99 0 L -0.44 -0.44 Z" fill="white"></path></g><g transform="translate(770.1 635.2)" opacity="0.98"><path d="M 0 -1.43 L 0.31 -0.31 L 1.43 0 L 0.31 0.31 L 0 1.43 L -0.31 0.31 L -1.43 0 L -0.31 -0.31 Z" fill="white"></path></g></svg>