<svg xmlns="http://www.w3.org/2000/svg" viewBox="0 0 1000 1000" preserveAspectRatio="xMidYMid slice"><g transform="translate(128.3 935.3)" opacity="0.84"><path d="M 0 -3.27 L 0.72 -0.72 L 3.27 0 L 0.72 0.72 L 0 3.27 L -0.72 0.72 L -3.27 0 L -0.72 -0.72 Z" fill="white"></path></g><g transform="translate(543.6 673.2)" opacity="0.56"><path d="M 0 -2.66 L 0.59 -0.59 L 2.66 0 L 0.59 0.59 L 0 2.66 L -0.59 0.59 L -2.66 0 L -0.59 -0.59 Z" fill="white"></path></g><g transform="translate(838.6 846.2)" opacity="0.55"><path d="M 0 -3.04 L 0.67 -0.67 L 3.04 0 L 0.67 0.67 L 0 3.04 L -0.67 0.67 L -3.04 0 L -0.67 -0.67 Z" fill="white"></path></g><g transform="translate(346.5 787.7)" opacity="0.99"><path d="M 0 -3.41 L 0.75 -0.75 L 3.41 0 L 0.75 0.75 L 0 3.41 L -0.75 0.75 L -3.41 0 L -0.75 -0.75 Z" fill="white"></path></g><g transform="translate(400.7 831.1)" opacity="0.52"><path d="M 0 -2.77 L 0.61 -0.61 L 2.77 0 L 0.61 0.61 L 0 2.77 L -0.61 0.61 L -2.77 0 L -0.61 -0.61 Z" fill="white"></path></g><g transform="translate(334.5 309.7)" opacity="0.84"><path d="M 0 -3.11 L 0.68 -0.68 L 3.11 0 L 0.68 0.68 L 0 3.11 L -0.68 0.68 L -3.11 0 L -0.68 -0.68 Z" fill="white"></path></g><g transform="translate(481.3 556.8)" opacity="0.59"><path d="M 0 -3.43 L 0.76 -0.76 L 3.43 0 L 0.76 0.76 L 0 3.43 L -0.76 0.76 L -3.43 0 L -0.76 -0.76 Z" fill="white"></path></g><g transform="translate(174.4 905.7)" opacity="0.95"><path d="M 0 -2.75 L 0.60 -0.60 L 2.75 0 L 0.60 0.60 L 0 2.75 L -0.60 0.60 L -2.75 0 L -0.60 -0.60 Z" fill="white"></path></g><g transform="translate(747.1 689.9)" opacity="0.58"><path d="M 0 -3.05 L 0.67 -0.67 L 3.05 0 L 0.67 0.67 L 0 3.05 L -0.67 0.67 L -3.05 0 L -0.67 -0.67 Z" fill="white"></path></g><g transform="translate(532.7 242.5)" opacity="0.65"><path d="M 0 -3.33 L 0.73 -0.73 L 3.33 0 L 0.73 0.73 L 0 3.33 L -0.73 0.73 L -3.33 0 L -0.73 -0.73 Z" fill="white"></path></g><g transform="translate(864.7 897.0)" opacity="0.83"><path d="M 0 -2.60 L 0.57 -0.57 L 2.60 0 L 0.57 0.57 L 0 2.60 L -0.57 0.57 L -2.60 0 L -0.57 -0.57 Z" fill="white"></path></g><g transform="translate(76.3 986.7)" opacity="0.78"><path d="M 0 -2.86 L 0.63 -0.63 L 2.86 0 L 0.63 0.63 L 0 2.86 L -0.63 0.63 L -2.86 0 L -0.63 -0.63 Z" fill="white"></path></g><g transform="translate(500.9 844.9)" opacity="0.67"><path d="M 0 -3.10 L 0.68 -0.68 L 3.10 0 L 0.68 0.68 L 0 3.10 L -0.68 0.68 L -3.10 0 L -0.68 -0.68 Z" fill="white"></path></g><g transform="translate(471.7 805.0)" opacity="0.66"><path d="M 0 -2.33 L 0.51 -0.51 L 2.33 0 L 0.51 0.51 L 0 2.33 L -0.51 0.51 L -2.33 0 L -0.51 -0.51 Z" fill="white"></path></g><g transform="translate(322.2 200.2)" opacity="0.93"><path d="M 0 -2.55 L 0.56 -0.56 L 2.55 0 L 0.56 0.56 L 0 2.55 L -0.56 0.56 L -2.55 0 L -0.56 -0.56 Z" fill="white"></path></g><g transform="translate(385.7 364.0)" opacity="0.64"><path d="M 0 -2.75 L 0.60 -0.60 L 2.75 0 L 0.60 0.60 L 0 2.75 L -0.60 0.60 L -2.75 0 L -0.60 -0.60 Z" fill="white"></path></g><g transform="translate(995.4 629.6)" opacity="0.96"><path d="M 0 -3.44 L 0.76 -0.76 L 3.44 0 L 0.76 0.76 L 0 3.44 L -0.76 0.76 L -3.44 0 L -0.76 -0.76 Z" fill="white"></path></g><g transform="translate(484.8 330.4)" opacity="0.55"><path d="M 0 -2.11 L 0.46 -0.46 L 2.11 0 L 0.46 0.46 L 0 2.11 L -0.46 0.46 L -2.11 0 L -0.46 -0.46 Z" fill="white"></path></g><g transform="translate(187.1 799.7)" opacity="0.58"><path d="M 0 -2.27 L 0.50 -0.50 L 2.27 0 L 0.50 0.50 L 0 2.27 L -0.50 0.50 L -2.27 0 L -0.50 -0.50 Z" fill="white"></path></g><g transform="translate(435.8 370.9)" opacity="0.72"><path d="M 0 -2.92 L 0.64 -0.64 L 2.92 0 L 0.64 0.64 L 0 2.92 L -0.64 0.64 L -2.92 0 L -0.64 -0.64 Z" fill="white"></path></g><g transform="translate(564.0 377.2)" opacity="0.62"><path d="M 0 -3.05 L 0.67 -0.67 L 3.05 0 L 0.67 0.67 L 0 3.05 L -0.67 0.67 L -3.05 0 L -0.67 -0.67 Z" fill="white"></path></g><g transform="translate(905.3 152.1)" opacity="0.97"><path d="M 0 -3.17 L 0.70 -0.70 L 3.17 0 L 0.70 0.70 L 0 3.17 L -0.70 0.70 L -3.17 0 L -0.70 -0.70 Z" fill="white"></path></g><g transform="translate(792.8 28.8)" opacity="0.93"><path d="M 0 -2.27 L 0.50 -0.50 L 2.27 0 L 0.50 0.50 L 0 2.27 L -0.50 0.50 L -2.27 0 L -0.50 -0.50 Z" fill="white"></path></g><g transform="translate(560.0 340.7)" opacity="0.66"><path d="M 0 -2.36 L 0.52 -0.52 L 2.36 0 L 0.52 0.52 L 0 2.36 L -0.52 0.52 L -2.36 0 L -0.52 -0.52 Z" fill="white"></path></g><g transform="translate(540.1 421.1)" opacity="0.83"><path d="M 0 -2.44 L 0.54 -0.54 L 2.44 0 L 0.54 0.54 L 0 2.44 L -0.54 0.54 L -2.44 0 L -0.54 -0.54 Z" fill="white"></path></g><g transform="translate(66.5 603.4)" opacity="0.60"><path d="M 0 -3.00 L 0.66 -0.66 L 3.00 0 L 0.66 0.66 L 0 3.00 L -0.66 0.66 L -3.00 0 L -0.66 -0.66 Z" fill="white"></path></g><g transform="translate(472.5 220.9)" opacity="0.65"><path d="M 0 -3.05 L 0.67 -0.67 L 3.05 0 L 0.67 0.67 L 0 3.05 L -0.67 0.67 L -3.05 0 L -0.67 -0.67 Z" fill="white"></path></g><g transform="translate(91.5 606.9)" opacity="0.64"><path d="M 0 -3.09 L 0.68 -0.68 L 3.09 0 L 0.68 0.68 L 0 3.09 L -0.68 0.68 L -3.09 0 L -0.68 -0.68 Z" fill="white"></path></g><g transform="translate(256.8 94.7)" opacity="0.73"><path d="M 0 -2.11 L 0.46 -0.46 L 2.11 0 L 0.46 0.46 L 0 2.11 L -0.46 0.46 L -2.11 0 L -0.46 -0.46 Z" fill="white"></path></g><g transform="translate(301.8 17.7)" opacity="0.60"><path d="M 0 -2.11 L 0.47 -0.47 L 2.11 0 L 0.47 0.47 L 0 2.11 L -0.47 0.47 L -2.11 0 L -0.47 -0.47 Z" fill="white"></path></g><g transform="translate(559.7 709.3)" opacity="0.91"><path d="M 0 -2.11 L 0.46 -0.46 L 2.11 0 L 0.46 0.46 L 0 2.11 L -0.46 0.46 L -2.11 0 L -0.46 -0.46 Z" fill="white"></path></g><g transform="translate(363.9 502.7)" opacity="0.82"><path d="M 0 -2.59 L 0.57 -0.57 L 2.59 0 L 0.57 0.57 L 0 2.59 L -0.57 0.57 L -2.59 0 L -0.57 -0.57 Z" fill="white"></path></g><g transform="translate(47.7 731.2)" opacity="0.51"><path d="M 0 -2.55 L 0.56 -0.56 L 2.55 0 L 0.56 0.56 L 0 2.55 L -0.56 0.56 L -2.55 0 L -0.56 -0.56 Z" fill="white"></path></g><g transform="translate(944.5 728.3)" opacity="0.63"><path d="M 0 -2.50 L 0.55 -0.55 L 2.50 0 L 0.55 0.55 L 0 2.50 L -0.55 0.55 L -2.50 0 L -0.55 -0.55 Z" fill="white"></path></g><g transform="translate(387.6 827.3)" opacity="0.87"><path d="M 0 -2.94 L 0.65 -0.65 L 2.94 0 L 0.65 0.65 L 0 2.94 L -0.65 0.65 L -2.94 0 L -0.65 -0.65 Z" fill="white"></path></g><g transform="translate(710.3 361.4)" opacity="0.87"><path d="M 0 -2.87 L 0.63 -0.63 L 2.87 0 L 0.63 0.63 L 0 2.87 L -0.63 0.63 L -2.87 0 L -0.63 -0.63 Z" fill="white"></path></g><g transform="translate(245.9 664.0)" opacity="0.82"><path d="M 0 -2.78 L 0.61 -0.61 L 2.78 0 L 0.61 0.61 L 0 2.78 L -0.61 0.61 L -2.78 0 L -0.61 -0.61 Z" fill="white"></path></g><g transform="translate(327.9 68.5)" opacity="0.87"><path d="M 0 -3.17 L 0.70 -0.70 L 3.17 0 L 0.70 0.70 L 0 3.17 L -0.70 0.70 L -3.17 0 L -0.70 -0.70 Z" fill="white"></path></g><g transform="translate(289.5 908.2)" opacity="0.70"><path d="M 0 -3.05 L 0.67 -0.67 L 3.05 0 L 0.67 0.67 L 0 3.05 L -0.67 0.67 L -3.05 0 L -0.67 -0.67 Z" fill="white"></path></g><g transform="translate(464.1 516.4)" opacity="0.96"><path d="M 0 -2.92 L 0.64 -0.64 L 2.92 0 L 0.64 0.64 L 0 2.92 L -0.64 0.64 L -2.92 0 L -0.64 -0.64 Z" fill="white"></path></g><g transform="translate(184.9 226.5)" opacity="0.83"><path d="M 0 -3.28 L 0.72 -0.72 L 3.28 0 L 0.72 0.72 L 0 3.28 L -0.72 0.72 L -3.28 0 L -0.72 -0.72 Z" fill="white"></path></g><g transform="translate(785.4 371.7)" opacity="0.98"><path d="M 0 -3.12 L 0.69 -0.69 L 3.12 0 L 0.69 0.69 L 0 3.12 L -0.69 0.69 L -3.12 0 L -0.69 -0.69 Z" fill="white"></path></g><g transform="translate(598.9 285.5)" opacity="0.56"><path d="M 0 -2.94 L 0.65 -0.65 L 2.94 0 L 0.65 0.65 L 0 2.94 L -0.65 0.65 L -2.94 0 L -0.65 -0.65 Z" fill="white"></path></g><g transform="translate(958.6 301.1)" opacity="0.76"><path d="M 0 -3.26 L 0.72 -0.72 L 3.26 0 L 0.72 0.72 L 0 3.26 L -0.72 0.72 L -3.26 0 L -0.72 -0.72 Z" fill="white"></path></g><g transform="translate(198.0 751.9)" opacity="0.72"><path d="M 0 -3.06 L 0.67 -0.67 L 3.06 0 L 0.67 0.67 L 0 3.06 L -0.67 0.67 L -3.06 0 L -0.67 -0.67 Z" fill="white"></path></g><g transform="translate(650.3 971.2)" opacity="0.62"><path d="M 0 -2.84 L 0.62 -0.62 L 2.84 0 L 0.62 0.62 L 0 2.84 L -0.62 0.62 L -2.84 0 L -0.62 -0.62 Z" fill="white"></path></g><g transform="translate(649.0 292.4)" opacity="0.63"><path d="M 0 -3.11 L 0.68 -0.68 L 3.11 0 L 0.68 0.68 L 0 3.11 L -0.68 0.68 L -3.11 0 L -0.68 -0.68 Z" fill="white"></path></g><g transform="translate(527.2 48.7)" opacity="0.92"><path d="M 0 -2.87 L 0.63 -0.63 L 2.87 0 L 0.63 0.63 L 0 2.87 L -0.63 0.63 L -2.87 0 L -0.63 -0.63 Z" fill="white"></path></g><g transform="translate(618.5 573.6)" opacity="0.64"><path d="M 0 -2.61 L 0.57 -0.57 L 2.61 0 L 0.57 0.57 L 0 2.61 L -0.57 0.57 L -2.61 0 L -0.57 -0.57 Z" fill="white"></path></g><g transform="translate(256.0 200.3)" opacity="0.97"><path d="M 0 -2.84 L 0.63 -0.63 L 2.84 0 L 0.63 0.63 L 0 2.84 L -0.63 0.63 L -2.84 0 L -0.63 -0.63 Z" fill="white"></path></g><g transform="translate(773.1 262.2)" opacity="0.58"><path d="M 0 -2.56 L 0.56 -0.56 L 2.56 0 L 0.56 0.56 L 0 2.56 L -0.56 0.56 L -2.56 0 L -0.56 -0.56 Z" fill="white"></path></g><g transform="translate(503.3 92.7)" opacity="0.62"><path d="M 0 -2.26 L 0.50 -0.50 L 2.26 0 L 0.50 0.50 L 0 2.26 L -0.50 0.50 L -2.26 0 L -0.50 -0.50 Z" fill="white"></path></g><g transform="translate(779.7 25.0)" opacity="0.77"><path d="M 0 -2.45 L 0.54 -0.54 L 2.45 0 L 0.54 0.54 L 0 2.45 L -0.54 0.54 L -2.45 0 L -0.54 -0.54 Z" fill="white"></path></g><g transform="translate(935.7 392.4)" opacity="0.69"><path d="M 0 -2.12 L 0.47 -0.47 L 2.12 0 L 0.47 0.47 L 0 2.12 L -0.47 0.47 L -2.12 0 L -0.47 -0.47 Z" fill="white"></path></g><g transform="translate(304.7 528.4)" opacity="0.56"><path d="M 0 -3.28 L 0.72 -0.72 L 3.28 0 L 0.72 0.72 L 0 3.28 L -0.72 0.72 L -3.28 0 L -0.72 -0.72 Z" fill="white"></path></g><g transform="translate(220.0 766.2)" opacity="0.52"><path d="M 0 -3.43 L 0.75 -0.75 L 3.43 0 L 0.75 0.75 L 0 3.43 L -0.75 0.75 L -3.43 0 L -0.75 -0.75 Z" fill="white"></path></g><g transform="translate(15.0 439.3)" opacity="0.77"><path d="M 0 -3.06 L 0.67 -0.67 L 3.06 0 L 0.67 0.67 L 0 3.06 L -0.67 0.67 L -3.06 0 L -0.67 -0.67 Z" fill="white"></path></g><g transform="translate(22.9 880.8)" opacity="0.95"><path d="M 0 -2.68 L 0.59 -0.59 L 2.68 0 L 0.59 0.59 L 0 2.68 L -0.59 0.59 L -2.68 0 L -0.59 -0.59 Z" fill="white"></path></g><g transform="translate(577.1 424.2)" opacity="0.74"><path d="M 0 -2.78 L 0.61 -0.61 L 2.78 0 L 0.61 0.61 L 0 2.78 L -0.61 0.61 L -2.78 0 L -0.61 -0.61 Z" fill="white"></path></g><g transform="translate(10.9 402.8)" opacity="0.80"><path d="M 0 -2.37 L 0.52 -0.52 L 2.37 0 L 0.52 0.52 L 0 2.37 L -0.52 0.52 L -2.37 0 L -0.52 -0.52 Z" fill="white"></path></g><g transform="translate(657.7 149.8)" opacity="0.80"><path d="M 0 -3.45 L 0.76 -0.76 L 3.45 0 L 0.76 0.76 L 0 3.45 L -0.76 0.76 L -3.45 0 L -0.76 -0.76 Z" fill="white"></path></g><g transform="translate(850.7 998.8)" opacity="0.91"><path d="M 0 -2.01 L 0.44 -0.44 L 2.01 0 L 0.44 0.44 L 0 2.01 L -0.44 0.44 L -2.01 0 L -0.44 -0.44 Z" fill="white"></path></g><g transform="translate(923.5 282.9)" opacity="0.79"><path d="M 0 -3.06 L 0.67 -0.67 L 3.06 0 L 0.67 0.67 L 0 3.06 L -0.67 0.67 L -3.06 0 L -0.67 -0.67 Z" fill="white"></path></g><g transform="translate(209.1 335.6)" opacity="0.61"><path d="M 0 -2.60 L 0.57 -0.57 L 2.60 0 L 0.57 0.57 L 0 2.60 L -0.57 0.57 L -2.60 0 L -0.57 -0.57 Z" fill="white"></path></g><g transform="translate(41.1 490.1)" opacity="0.54"><path d="M 0 -2.62 L 0.58 -0.58 L 2.62 0 L 0.58 0.58 L 0 2.62 L -0.58 0.58 L -2.62 0 L -0.58 -0.58 Z" fill="white"></path></g><g transform="translate(752.7 79.8)" opacity="0.74"><path d="M 0 -2.12 L 0.47 -0.47 L 2.12 0 L 0.47 0.47 L 0 2.12 L -0.47 0.47 L -2.12 0 L -0.47 -0.47 Z" fill="white"></path></g><g transform="translate(677.3 438.0)" opacity="0.88"><path d="M 0 -3.12 L 0.69 -0.69 L 3.12 0 L 0.69 0.69 L 0 3.12 L -0.69 0.69 L -3.12 0 L -0.69 -0.69 Z" fill="white"></path></g><g transform="translate(148.1 898.0)" opacity="0.63"><path d="M 0 -3.10 L 0.68 -0.68 L 3.10 0 L 0.68 0.68 L 0 3.10 L -0.68 0.68 L -3.10 0 L -0.68 -0.68 Z" fill="white"></path></g><g transform="translate(498.6 793.3)" opacity="0.65"><path d="M 0 -2.56 L 0.56 -0.56 L 2.56 0 L 0.56 0.56 L 0 2.56 L -0.56 0.56 L -2.56 0 L -0.56 -0.56 Z" fill="white"></path></g><g transform="translate(62.1 457.0)" opacity="0.61"><path d="M 0 -2.01 L 0.44 -0.44 L 2.01 0 L 0.44 0.44 L 0 2.01 L -0.44 0.44 L -2.01 0 L -0.44 -0.44 Z" fill="white"></path></g></svg>