<svg xmlns="http://www.w3.org/2000/svg" viewBox="0 0 1000 1000" preserveAspectRatio="xMidYMid slice"><g transform="translate(483.9 356.3)" opacity="1.00"><path d="M 0 -5.73 L 1.26 -1.26 L 5.73 0 L 1.26 1.26 L 0 5.73 L -1.26 1.26 L -5.73 0 L -1.26 -1.26 Z" fill="white"></path></g><g transform="translate(532.0 986.1)" opacity="0.76"><path d="M 0 -5.38 L 1.18 -1.18 L 5.38 0 L 1.18 1.18 L 0 5.38 L -1.18 1.18 L -5.38 0 L -1.18 -1.18 Z" fill="white"></path></g><g transform="translate(348.5 606.6)" opacity="0.73"><path d="M 0 -4.73 L 1.04 -1.04 L 4.73 0 L 1.04 1.04 L 0 4.73 L -1.04 1.04 L -4.73 0 L -1.04 -1.04 Z" fill="white"></path></g><g transform="translate(266.9 551.3)" opacity="0.59"><path d="M 0 -4.61 L 1.01 -1.01 L 4.61 0 L 1.01 1.01 L 0 4.61 L -1.01 1.01 L -4.61 0 L -1.01 -1.01 Z" fill="white"></path></g><g transform="translate(620.5 153.3)" opacity="0.50"><path d="M 0 -5.86 L 1.29 -1.29 L 5.86 0 L 1.29 1.29 L 0 5.86 L -1.29 1.29 L -5.86 0 L -1.29 -1.29 Z" fill="white"></path></g><g transform="translate(742.6 746.1)" opacity="0.63"><path d="M 0 -4.30 L 0.95 -0.95 L 4.30 0 L 0.95 0.95 L 0 4.30 L -0.95 0.95 L -4.30 0 L -0.95 -0.95 Z" fill="white"></path></g><g transform="translate(966.5 662.9)" opacity="0.64"><path d="M 0 -5.78 L 1.27 -1.27 L 5.78 0 L 1.27 1.27 L 0 5.78 L -1.27 1.27 L -5.78 0 L -1.27 -1.27 Z" fill="white"></path></g><g transform="translate(625.6 237.2)" opacity="0.71"><path d="M 0 -3.62 L 0.80 -0.80 L 3.62 0 L 0.80 0.80 L 0 3.62 L -0.80 0.80 L -3.62 0 L -0.80 -0.80 Z" fill="white"></path></g><g transform="translate(53.3 802.2)" opacity="0.99"><path d="M 0 -3.67 L 0.81 -0.81 L 3.67 0 L 0.81 0.81 L 0 3.67 L -0.81 0.81 L -3.67 0 L -0.81 -0.81 Z" fill="white"></path></g><g transform="translate(582.8 691.2)" opacity="0.65"><path d="M 0 -4.24 L 0.93 -0.93 L 4.24 0 L 0.93 0.93 L 0 4.24 L -0.93 0.93 L -4.24 0 L -0.93 -0.93 Z" fill="white"></path></g><g transform="translate(547.5 237.7)" opacity="0.87"><path d="M 0 -3.68 L 0.81 -0.81 L 3.68 0 L 0.81 0.81 L 0 3.68 L -0.81 0.81 L -3.68 0 L -0.81 -0.81 Z" fill="white"></path></g><g transform="translate(280.7 774.9)" opacity="0.80"><path d="M 0 -5.32 L 1.17 -1.17 L 5.32 0 L 1.17 1.17 L 0 5.32 L -1.17 1.17 L -5.32 0 L -1.17 -1.17 Z" fill="white"></path></g><g transform="translate(115.7 636.2)" opacity="0.62"><path d="M 0 -4.99 L 1.10 -1.10 L 4.99 0 L 1.10 1.10 L 0 4.99 L -1.10 1.10 L -4.99 0 L -1.10 -1.10 Z" fill="white"></path></g><g transform="translate(386.0 154.9)" opacity="0.99"><path d="M 0 -3.53 L 0.78 -0.78 L 3.53 0 L 0.78 0.78 L 0 3.53 L -0.78 0.78 L -3.53 0 L -0.78 -0.78 Z" fill="white"></path></g><g transform="translate(424.7 664.3)" opacity="0.57"><path d="M 0 -4.27 L 0.94 -0.94 L 4.27 0 L 0.94 0.94 L 0 4.27 L -0.94 0.94 L -4.27 0 L -0.94 -0.94 Z" fill="white"></path></g><g transform="translate(565.3 497.9)" opacity="0.55"><path d="M 0 -5.54 L 1.22 -1.22 L 5.54 0 L 1.22 1.22 L 0 5.54 L -1.22 1.22 L -5.54 0 L -1.22 -1.22 Z" fill="white"></path></g><g transform="translate(141.1 988.8)" opacity="0.57"><path d="M 0 -5.68 L 1.25 -1.25 L 5.68 0 L 1.25 1.25 L 0 5.68 L -1.25 1.25 L -5.68 0 L -1.25 -1.25 Z" fill="white"></path></g><g transform="translate(485.5 470.4)" opacity="0.81"><path d="M 0 -5.51 L 1.21 -1.21 L 5.51 0 L 1.21 1.21 L 0 5.51 L -1.21 1.21 L -5.51 0 L -1.21 -1.21 Z" fill="white"></path></g><g transform="translate(931.6 276.2)" opacity="0.93"><path d="M 0 -5.88 L 1.29 -1.29 L 5.88 0 L 1.29 1.29 L 0 5.88 L -1.29 1.29 L -5.88 0 L -1.29 -1.29 Z" fill="white"></path></g><g transform="translate(813.0 739.3)" opacity="0.60"><path d="M 0 -5.11 L 1.12 -1.12 L 5.11 0 L 1.12 1.12 L 0 5.11 L -1.12 1.12 L -5.11 0 L -1.12 -1.12 Z" fill="white"></path></g><g transform="translate(462.9 193.2)" opacity="1.00"><path d="M 0 -4.04 L 0.89 -0.89 L 4.04 0 L 0.89 0.89 L 0 4.04 L -0.89 0.89 L -4.04 0 L -0.89 -0.89 Z" fill="white"></path></g><g transform="translate(214.6 971.2)" opacity="0.77"><path d="M 0 -3.51 L 0.77 -0.77 L 3.51 0 L 0.77 0.77 L 0 3.51 L -0.77 0.77 L -3.51 0 L -0.77 -0.77 Z" fill="white"></path></g><g transform="translate(401.5 406.5)" opacity="0.60"><path d="M 0 -4.34 L 0.95 -0.95 L 4.34 0 L 0.95 0.95 L 0 4.34 L -0.95 0.95 L -4.34 0 L -0.95 -0.95 Z" fill="white"></path></g><g transform="translate(356.9 832.6)" opacity="0.64"><path d="M 0 -4.86 L 1.07 -1.07 L 4.86 0 L 1.07 1.07 L 0 4.86 L -1.07 1.07 L -4.86 0 L -1.07 -1.07 Z" fill="white"></path></g><g transform="translate(414.2 582.8)" opacity="0.57"><path d="M 0 -5.93 L 1.30 -1.30 L 5.93 0 L 1.30 1.30 L 0 5.93 L -1.30 1.30 L -5.93 0 L -1.30 -1.30 Z" fill="white"></path></g></svg>